<svg width="150" height="44" viewBox="0 0 150 44" fill="none" xmlns="http://www.w3.org/2000/svg">
<g clip-path="url(#clip0_370_1715)">
<path d="M27.2691 29.5778C27.2691 30.1482 27.1049 30.7186 26.6942 31.126C26.2835 31.5334 25.7085 31.7778 25.1336 31.8593L15.3594 32.2667L5.66734 32.6741C6.32442 35.2815 8.29569 37.3186 10.7598 38.2964C12.4846 39.0297 14.3738 39.1112 16.0986 38.6223C17.8235 38.2149 19.3841 37.2371 20.6161 35.8519C21.1911 35.1186 22.2588 34.8741 23.1623 35.2815C23.8194 35.526 24.3122 36.0964 24.4765 36.8297C24.6408 37.4815 24.4765 38.2149 23.9837 38.7852C22.2588 40.8223 19.8769 42.2889 17.1664 42.8593C14.4559 43.5112 11.6633 43.3482 9.11705 42.2889C5.83161 41.0667 3.20325 38.4593 1.88907 35.2815C0.492761 32.1038 0.410625 28.4371 1.80694 25.2593C3.03898 22.0001 5.66734 19.3927 8.87064 18.089C12.074 16.7038 15.7701 16.6223 18.9734 18.0075C23.8194 19.8815 27.0227 24.4445 27.2691 29.5778ZM17.3307 22.163C12.8953 20.3704 7.80288 22.4889 5.99588 26.9704C5.83161 27.3778 5.66734 27.7852 5.5852 28.1927L22.341 27.4593C21.6017 25.0149 19.7947 23.0593 17.3307 22.163Z" fill="#2A64DB"/>
<path d="M56.4274 29.0074C56.5096 30.2296 55.6061 31.2074 54.374 31.2889C54.374 31.2889 54.374 31.2889 54.2919 31.2889L44.5177 31.6963L34.7435 32.1037C35.4006 34.7111 37.3719 36.7481 39.8359 37.7259C43.2857 39.1111 47.3103 38.1333 49.6923 35.3629C50.2672 34.6296 51.335 34.3852 52.2385 34.7926C52.8956 35.037 53.3884 35.6074 53.5527 36.3407C53.7169 36.9926 53.5527 37.7259 53.0599 38.2963C51.335 40.3333 48.953 41.8 46.2426 42.3703C43.5321 43.0222 40.7394 42.8592 38.1932 41.8C34.9078 40.5778 32.2794 37.9704 30.9652 34.7926C29.5689 31.6148 29.4868 27.9481 30.8831 24.7703C32.1152 21.5111 34.7435 18.9037 37.9468 17.6C43.6963 15.1555 50.3494 17.1111 53.8812 22.1629C55.5239 24.2 56.2632 26.5629 56.4274 29.0074ZM46.489 21.5926C42.0536 19.8 36.9612 21.9185 35.1542 26.3185C35.1542 26.3185 35.1542 26.3185 35.1542 26.4C34.9899 26.8074 34.8256 27.2148 34.7435 27.6222L51.5814 26.8889C50.76 24.5259 48.953 22.5703 46.489 21.5926Z" fill="#2A64DB"/>
<path d="M75.1545 21.0223C75.3188 20.8593 75.3188 20.6963 74.9903 20.6963H62.5877C62.0128 20.6963 61.4378 20.4519 61.0271 20.0445C60.6165 19.6371 60.37 19.0667 60.37 18.4963V18.4148C60.37 17.8445 60.6165 17.2741 61.0271 16.8667C61.4378 16.4593 62.0128 16.2148 62.5877 16.2148H77.1258C78.6864 16.1334 80.0827 17.0297 80.6577 18.4148C81.3147 19.8 80.9862 21.4297 79.8363 22.4889C74.4153 28.1926 69.5693 33.163 65.4625 37.4815C59.2201 43.9185 65.4625 37.563 65.3803 37.6445C65.2982 37.726 65.2161 37.9704 65.4625 37.9704H65.6268H78.8507C79.4256 37.9704 80.0006 38.2148 80.4113 38.6223C80.8219 39.0297 81.0683 39.6 81.0683 40.1704V40.2519C81.0683 40.8223 80.8219 41.3926 80.4113 41.8C80.0006 42.2074 79.4256 42.4519 78.8507 42.4519H63.2448C61.6842 42.6148 60.2879 41.6371 59.7129 40.2519C59.0559 38.8667 59.3844 37.2371 60.5343 36.1778C62.0949 34.5482 64.4768 32.0223 67.7623 28.6815L74.9903 21.1852C74.9903 21.1037 75.0724 21.0223 75.1545 21.0223Z" fill="#2A64DB"/>
<path d="M110.555 29.0889C110.555 29.6593 110.391 30.2297 109.98 30.6371C109.569 31.0445 108.995 31.2889 108.42 31.3704L98.6454 31.7778L88.9533 32.1852C89.6104 34.7926 91.5817 36.8297 94.0458 37.8075C97.4955 39.1926 101.438 38.2149 103.902 35.4445C104.477 34.7112 105.545 34.4667 106.448 34.8741C107.105 35.1186 107.598 35.6889 107.763 36.4223C107.927 37.0741 107.763 37.8074 107.27 38.3778C105.545 40.4149 103.163 41.8815 100.452 42.4519C97.7419 43.1037 94.9493 42.9408 92.4031 41.8815C89.1176 40.6593 86.4893 38.0519 85.1751 34.8741C83.7788 31.6963 83.6966 28.0297 85.0929 24.8519C86.325 21.5926 88.9533 18.9852 92.1567 17.6815C97.9062 15.2371 104.559 17.1926 108.091 22.2445C109.652 24.2 110.473 26.563 110.555 29.0889ZM100.699 21.5926C96.2635 19.8 91.171 21.9186 89.364 26.3186C89.364 26.3186 89.364 26.3186 89.364 26.4C89.1998 26.8075 89.0355 27.2149 88.9533 27.6223L105.791 26.8889C104.97 24.526 103.081 22.5704 100.699 21.5926Z" fill="#2A64DB"/>
<path d="M140.042 29.0889C140.124 29.6592 139.878 30.2296 139.467 30.637C139.056 31.0444 138.481 31.2889 137.906 31.3703L128.132 31.6963L118.358 32.1037C119.015 34.7111 120.986 36.7481 123.451 37.7259C126.9 39.1111 130.843 38.1333 133.307 35.3629C133.882 34.6296 134.95 34.3852 135.853 34.7926C136.51 35.037 137.003 35.6074 137.167 36.3407C137.332 36.9926 137.167 37.8074 136.674 38.2963C134.95 40.3333 132.568 41.8 129.939 42.3703C127.229 43.0222 124.436 42.8592 121.89 41.8C118.604 40.5778 115.976 37.9704 114.662 34.7926C113.266 31.6148 113.184 27.9481 114.58 24.7703C115.812 21.5111 118.44 18.9037 121.644 17.6C127.393 15.1555 134.046 17.1111 137.66 22.1629C139.139 24.2 139.96 26.5629 140.042 29.0889ZM130.104 21.5926C125.668 19.8 120.576 21.9185 118.769 26.4C118.604 26.8074 118.522 27.2148 118.358 27.6222L135.196 26.8889C134.375 24.5259 132.485 22.5703 130.104 21.5926Z" fill="#2A64DB"/>
<path d="M8.29574 8.06673L150.309 0.733398L138.153 10.6741L2.87476 12.7927L8.29574 8.06673Z" fill="#FFC822"/>
</g>
<defs>
<clipPath id="clip0_370_1715">
<rect width="150" height="44" fill="white"/>
</clipPath>
</defs>
</svg>
